<?xml version="1.0" standalone="no"?>
<!DOCTYPE svg PUBLIC "-//W3C//DTD SVG 20010904//EN"
 "http://www.w3.org/TR/2001/REC-SVG-20010904/DTD/svg10.dtd">
<svg version="1.0" xmlns="http://www.w3.org/2000/svg"
 width="300.000000pt" height="300.000000pt" viewBox="0 0 300.000000 300.000000"
 preserveAspectRatio="xMidYMid meet">
<metadata>
Created by potrace 1.10, written by Peter Selinger 2001-2011
</metadata>
<g transform="translate(0.000000,300.000000) scale(0.100000,-0.100000)"
fill="#000000" stroke="none">
<path d="M1225 2410 c-44 -4 -101 -17 -127 -28 -60 -27 -133 -99 -161 -160
-21 -46 -22 -59 -22 -412 l0 -365 26 -50 c37 -69 92 -123 158 -154 l56 -26
322 -3 c271 -3 332 -1 385 13 108 27 182 89 221 185 21 53 22 66 22 405 l0
350 -29 63 c-34 73 -86 124 -165 161 l-56 26 -275 1 c-151 0 -311 -2 -355 -6z
m655 -46 c61 -20 127 -79 161 -144 24 -44 24 -49 26 -385 2 -296 0 -347 -15
-392 -23 -71 -69 -123 -139 -158 l-58 -30 -355 0 c-354 0 -355 0 -397 23 -63
35 -125 110 -146 175 -15 48 -17 97 -17 386 1 197 5 333 11 336 5 4 9 13 9 21
0 35 112 154 146 154 7 0 14 5 16 10 7 21 108 27 404 24 252 -2 311 -6 354
-20z"/>
<path d="M1755 2325 c-22 -5 -59 -20 -83 -33 -39 -20 -45 -21 -70 -8 -26 13
-98 20 -188 17 -28 -1 -60 -13 -105 -40 -76 -46 -114 -60 -107 -40 11 30 -32
86 -70 94 -25 4 -82 -47 -82 -75 0 -35 30 -69 71 -80 45 -12 50 -32 14 -48
-33 -15 -32 -16 -39 13 -9 36 -43 51 -67 29 -23 -21 -24 -37 -2 -59 11 -11 26
-15 44 -11 22 4 27 2 22 -9 -3 -8 -9 -15 -14 -15 -5 0 -9 -16 -9 -36 0 -21 -8
-47 -20 -61 -11 -14 -20 -40 -21 -57 0 -17 -4 -40 -8 -51 -5 -11 -4 -32 1 -47
7 -18 6 -34 -3 -49 -14 -28 -14 -76 0 -93 6 -7 20 -39 31 -71 11 -32 25 -64
31 -71 6 -7 8 -18 4 -24 -3 -5 1 -13 9 -16 9 -3 16 -11 16 -16 0 -6 -6 -6 -15
2 -32 26 -88 -26 -62 -58 24 -30 45 -33 67 -10 11 12 18 28 16 34 -3 7 3 11
12 10 24 -4 27 -26 7 -62 -23 -43 -14 -81 22 -90 22 -6 32 -1 55 25 l29 32 45
-21 c35 -17 54 -20 92 -15 36 5 57 2 92 -14 57 -26 95 -26 127 -1 16 12 41 20
66 20 27 0 50 8 71 24 17 12 45 30 63 39 30 16 32 16 38 -1 9 -30 52 -64 80
-64 38 0 75 38 75 78 0 24 -9 39 -35 63 -19 17 -35 33 -35 36 0 12 28 4 34
-11 8 -20 45 -15 60 8 8 13 6 22 -11 40 -30 34 -36 89 -12 127 23 37 25 124 5
160 -8 14 -12 40 -9 61 7 50 -30 148 -75 200 -33 39 -34 43 -23 79 18 60 14
101 -14 136 -28 37 -60 45 -120 30z m93 -37 c26 -26 14 -100 -35 -200 -42 -89
-49 -98 -74 -98 -39 0 -81 -18 -76 -33 2 -7 18 -11 36 -9 37 3 38 -3 6 -49
-18 -27 -34 -38 -62 -44 -50 -9 -73 -22 -73 -41 0 -13 7 -15 35 -10 19 4 35 3
35 -1 -1 -13 -111 -127 -150 -155 -42 -30 -100 -52 -100 -37 0 13 118 222 176
312 48 74 128 181 181 240 37 42 44 63 14 48 -27 -15 -84 -83 -176 -209 -44
-61 -83 -111 -86 -111 -4 -1 -18 31 -31 69 l-26 71 43 47 c39 42 44 45 50 27
17 -51 26 -66 38 -62 13 4 11 71 -4 98 -6 12 4 28 40 63 73 72 205 118 239 84z
m-686 -22 c14 -20 8 -53 -12 -71 -18 -17 -21 -17 -45 -1 -33 22 -35 69 -2 83
23 11 47 6 59 -11z m428 -11 c-3 -5 -45 -10 -95 -10 -70 -1 -100 -5 -135 -22
l-45 -21 50 4 c28 3 70 10 94 15 50 11 101 4 101 -16 0 -14 -33 -20 -200 -33
-64 -6 -109 -15 -138 -29 -38 -19 -43 -20 -40 -5 2 9 27 29 57 44 30 15 62 34
70 42 39 35 85 46 186 43 62 -1 98 -6 95 -12z m-75 -95 c8 -12 0 -15 -95 -30
-168 -26 -248 -56 -300 -112 l-32 -33 7 30 c4 17 13 37 21 46 23 26 128 69
192 80 196 32 199 32 207 19z m-442 -46 c-6 -16 -29 -19 -38 -4 -4 6 -1 17 5
26 15 18 42 0 33 -22z m397 -13 c0 -5 -33 -25 -72 -45 -136 -66 -245 -179
-316 -328 -15 -31 -31 -56 -37 -54 -35 11 44 164 133 258 87 92 215 172 280
177 6 1 12 -3 12 -8z m-120 -10 c0 -5 -10 -13 -22 -17 -31 -9 -143 -80 -195
-122 -33 -26 -43 -41 -43 -63 0 -16 -9 -43 -20 -61 -16 -27 -20 -29 -26 -14
-4 9 -2 28 5 42 6 14 11 40 11 59 0 19 4 35 9 35 6 0 47 27 93 60 96 69 188
108 188 81z m577 -98 c34 -73 41 -107 23 -118 -5 -3 -16 19 -25 48 -8 30 -29
75 -45 101 -17 26 -28 52 -24 57 11 18 37 -14 71 -88z m-51 -5 c25 -48 11 -52
-24 -9 -18 23 -30 46 -27 52 9 13 32 -6 51 -43z m-486 16 c0 -4 -14 -22 -31
-42 -49 -56 -82 -137 -89 -220 -3 -40 -2 -76 2 -78 4 -3 8 -13 7 -22 0 -9 -9
1 -19 23 -15 32 -19 60 -17 136 2 107 4 110 80 171 46 36 67 46 67 32z m466
-56 c73 -77 132 -163 120 -175 -3 -3 -13 0 -22 7 -10 9 -9 2 6 -23 15 -25 20
-46 16 -62 -10 -41 -23 -28 -35 38 -16 81 -35 119 -93 183 -45 48 -59 74 -40
74 4 0 26 -19 48 -42z m-417 -22 l22 -53 -56 -79 c-32 -43 -63 -91 -71 -106
-8 -16 -19 -28 -24 -28 -14 0 -11 119 4 161 14 39 87 158 97 159 4 0 16 -24
28 -54z m375 -33 c20 -59 21 -166 1 -224 -22 -64 -81 -127 -185 -198 -97 -67
-175 -105 -244 -121 -46 -10 -103 0 -98 19 1 6 -5 11 -13 11 -18 0 -20 16 -3
26 6 4 19 -3 29 -15 17 -21 21 -22 74 -11 58 12 192 75 235 111 l25 20 -35
-17 c-64 -31 -232 -17 -247 22 -9 23 -1 24 47 8 32 -11 72 -14 148 -11 l104 4
50 48 c69 67 98 131 98 218 0 38 -7 83 -15 104 -16 37 -13 69 4 59 5 -3 16
-27 25 -53z m-605 -37 c-18 -70 -7 -164 26 -224 16 -30 25 -58 21 -68 -9 -24
-29 -4 -57 59 -31 69 -34 217 -6 261 25 37 30 28 16 -28z m661 6 c20 -43 78
-284 73 -299 -3 -8 -12 -12 -20 -8 -9 3 -45 -13 -81 -36 -89 -56 -191 -101
-221 -97 -21 3 -12 10 50 40 49 23 82 45 90 61 8 14 27 46 42 72 15 25 33 68
40 95 15 62 27 64 27 5 0 -48 -25 -102 -68 -147 -35 -38 -22 -35 50 9 l59 37
-7 40 c-6 38 -54 207 -69 249 -12 29 20 10 35 -21z m-107 -83 c-1 -79 -18
-121 -72 -175 -35 -36 -50 -43 -104 -53 -83 -14 -108 -14 -148 3 -30 13 -32
15 -14 21 83 28 230 160 242 216 3 16 21 43 41 60 33 29 36 30 45 13 6 -11 10
-48 10 -85z m-428 -195 c-86 -142 -160 -263 -166 -268 -6 -6 -13 -6 -20 1 -8
8 7 41 59 125 141 227 277 428 280 415 1 -7 -67 -130 -153 -273z m-144 -11
c29 -62 32 -96 4 -73 -44 37 -88 211 -70 277 7 24 10 15 22 -56 8 -49 26 -111
44 -148z m-75 34 c9 -32 30 -76 46 -98 48 -66 30 -84 -21 -21 -44 52 -74 137
-66 182 8 40 12 35 41 -63z m764 -106 c0 -24 -130 -111 -167 -111 -15 0 -16
-2 -3 -10 8 -5 11 -12 7 -16 -14 -14 -187 1 -187 16 0 14 33 21 76 14 35 -5
53 0 115 30 41 19 90 46 109 60 38 27 50 31 50 17z m-483 -32 c32 -11 64 -23
72 -25 11 -3 11 -8 3 -16 -8 -8 -21 -8 -51 0 -69 21 -112 42 -106 52 9 14 17
13 82 -11z m-309 -36 c-2 -10 -10 -18 -18 -18 -8 0 -16 8 -18 18 -2 12 3 17
18 17 15 0 20 -5 18 -17z m268 -3 c36 -16 45 -23 36 -32 -9 -9 -23 -7 -57 10
-25 12 -45 26 -45 32 0 14 12 13 66 -10z m594 -5 c17 -20 5 -62 -20 -70 -44
-14 -80 41 -48 73 17 17 53 15 68 -3z m-357 -82 c18 -11 -8 -23 -48 -23 -52 0
-99 16 -90 30 6 10 118 4 138 -7z"/>
<path d="M1926 2174 c-21 -21 -20 -36 4 -62 26 -27 35 -27 60 -2 23 23 25 38
6 63 -16 21 -49 22 -70 1z m51 -20 c8 -21 -13 -42 -28 -27 -13 13 -5 43 11 43
6 0 13 -7 17 -16z"/>
<path d="M973 1043 c-37 -5 -43 -18 -13 -26 19 -5 20 -14 20 -146 0 -117 -3
-143 -15 -147 -8 -4 -15 -10 -15 -15 0 -12 127 -11 135 1 3 6 -3 10 -14 10
-34 0 -41 32 -41 184 0 111 -3 146 -12 144 -7 0 -28 -3 -45 -5z"/>
<path d="M652 1015 c-35 -30 -42 -64 -16 -90 18 -17 45 -17 51 1 2 6 -5 14
-17 17 -37 10 -19 67 22 67 25 0 29 -28 26 -160 -3 -108 -4 -116 -25 -125 -43
-19 -23 -25 80 -25 84 0 108 4 134 20 58 35 57 109 -3 137 l-35 17 26 13 c30
16 42 55 27 88 -20 43 -58 59 -151 63 -83 4 -88 3 -119 -23z m193 -20 c44 -43
22 -115 -35 -115 -27 0 -29 3 -35 55 -4 30 -5 61 -1 70 8 23 44 18 71 -10z
m19 -157 c24 -33 20 -84 -6 -102 -28 -20 -62 -21 -77 -3 -6 8 -10 39 -8 70 l2
57 37 0 c27 0 41 -6 52 -22z"/>
<path d="M1545 1033 c-44 -10 -50 -16 -20 -22 39 -8 44 -30 38 -166 -4 -80 -9
-115 -21 -127 -14 -17 -11 -18 46 -18 35 0 62 4 62 10 0 6 -8 10 -19 10 -10 0
-23 6 -29 13 -10 12 -22 230 -12 221 3 -3 48 -60 100 -126 52 -67 101 -123
107 -126 9 -3 13 34 15 150 3 148 4 153 26 163 12 5 22 13 22 17 0 12 -118 10
-125 -2 -3 -5 0 -10 7 -10 32 -1 38 -18 44 -121 l5 -104 -23 26 c-13 15 -57
70 -98 123 -41 53 -82 95 -90 95 -8 -1 -24 -3 -35 -6z"/>
<path d="M2293 1013 c-11 -4 -73 -87 -73 -98 0 -2 7 -2 15 1 13 5 15 -6 15
-70 0 -108 22 -146 84 -146 27 0 61 34 51 51 -6 8 -10 7 -17 -5 -12 -22 -35
-20 -48 3 -5 11 -10 54 -10 95 l0 76 35 0 c19 0 35 5 35 10 0 6 -15 10 -34 10
-33 0 -35 2 -38 38 -2 25 -7 37 -15 35z"/>
<path d="M1374 936 c-64 -28 -82 -89 -40 -131 25 -25 25 -25 4 -36 -14 -8 -19
-18 -15 -36 3 -16 -2 -32 -14 -44 -46 -46 4 -109 86 -109 57 0 103 24 122 64
30 64 -13 106 -107 106 -28 0 -50 5 -50 10 0 6 16 10 35 10 77 0 129 55 107
112 -13 36 -5 59 13 34 11 -14 14 -14 25 -2 6 9 9 20 5 26 -8 13 -52 13 -61
-1 -6 -10 -27 -8 -66 6 -7 2 -27 -2 -44 -9z m72 -40 c16 -65 -15 -124 -53
-100 -22 13 -30 89 -12 110 19 23 58 18 65 -10z m22 -208 c32 -32 -3 -78 -59
-78 -40 0 -69 20 -69 49 0 28 21 41 70 41 25 0 51 -5 58 -12z"/>
<path d="M1104 906 c-59 -59 -46 -146 28 -190 46 -28 95 -21 135 19 34 34 35
38 31 92 -4 48 -10 61 -37 85 -25 22 -41 28 -77 28 -39 0 -51 -5 -80 -34z
m116 -6 c29 -29 29 -131 0 -160 -15 -15 -25 -18 -39 -11 -31 17 -41 37 -48 90
-10 84 38 130 87 81z"/>
<path d="M1870 911 c-55 -54 -52 -129 6 -180 47 -42 94 -42 136 -1 33 33 31
55 -2 25 -29 -26 -70 -22 -97 9 -40 47 -32 56 52 56 l75 0 0 31 c0 20 -10 40
-29 60 -41 41 -101 41 -141 0z m97 -3 c6 -7 13 -23 16 -35 4 -17 1 -23 -13
-23 -9 0 -32 -3 -50 -7 -32 -6 -33 -5 -26 23 4 16 12 35 18 41 13 17 43 17 55
1z"/>
<path d="M2071 914 c-12 -15 -21 -32 -21 -38 0 -24 32 -56 75 -75 36 -16 45
-25 45 -44 0 -30 -21 -40 -56 -27 -17 7 -24 15 -20 26 8 21 -22 30 -40 12 -53
-53 93 -96 150 -43 48 45 29 88 -58 130 -50 24 -57 58 -14 63 22 3 30 -2 40
-23 13 -28 31 -28 37 0 5 27 -26 45 -75 45 -34 0 -47 -5 -63 -26z"/>
</g>
</svg>
